<svg xmlns="http://www.w3.org/2000/svg" viewBox="0 0 680 440" width="100%" style="max-width:680px;height:auto">
<defs>
<marker id="ma3" viewBox="0 0 10 10" refX="8" refY="5" markerWidth="6" markerHeight="6" orient="auto-start-reverse">
<path d="M2 1L8 5L2 9" fill="none" stroke="context-stroke" stroke-width="1.5" stroke-linecap="round" stroke-linejoin="round"/>
</marker>
</defs>
<rect x="40" y="16" width="600" height="116" rx="14" fill="#EEEDFE" stroke="#534AB7" stroke-width="0.5"/>
<rect x="56" y="30" width="50" height="22" rx="11" fill="#534AB7"/>
<text x="81" y="41" text-anchor="middle" dominant-baseline="central" fill="#fff" font-size="10" font-weight="500">CDE</text>
<text x="116" y="41" dominant-baseline="central" fill="#3C3489" font-size="13" font-weight="500">Ciclos de Design Exploratório</text>
<line x1="56" y1="62" x2="626" y2="62" stroke="#534AB7" stroke-width="0.5" opacity="0.2"/>
<text x="56" y="80" fill="#534AB7" font-size="11">Objetivo</text>
<text x="140" y="80" fill="#3C3489" font-size="11">Testar se a incorporação funciona tecnicamente</text>
<text x="56" y="98" fill="#534AB7" font-size="11">Limite</text>
<text x="140" y="98" fill="#3C3489" font-size="11">Usabilidade, jogabilidade</text>
<text x="56" y="118" fill="#534AB7" font-size="11">Contexto</text>
<text x="140" y="118" fill="#3C3489" font-size="11">Pesquisador = designer ativo · voluntários · 2–4 sem/ciclo</text>
<line x1="340" y1="132" x2="340" y2="156" stroke="#9c9a92" stroke-width="1.2" marker-end="url(#ma3)"/>
<text x="354" y="146" fill="#9c9a92" font-size="9">refina</text>
<rect x="40" y="158" width="600" height="116" rx="14" fill="#E1F5EE" stroke="#0F6E56" stroke-width="0.5"/>
<rect x="56" y="172" width="50" height="22" rx="11" fill="#0F6E56"/>
<text x="81" y="183" text-anchor="middle" dominant-baseline="central" fill="#fff" font-size="10" font-weight="500">CDC</text>
<text x="116" y="183" dominant-baseline="central" fill="#085041" font-size="13" font-weight="500">Ciclos de Design Contextualizado</text>
<line x1="56" y1="204" x2="626" y2="204" stroke="#0F6E56" stroke-width="0.5" opacity="0.2"/>
<text x="56" y="222" fill="#0F6E56" font-size="11">Objetivo</text>
<text x="140" y="222" fill="#085041" font-size="11">Testar se a incorporação gera processos mediadores</text>
<text x="56" y="240" fill="#0F6E56" font-size="11">Limite</text>
<text x="140" y="240" fill="#085041" font-size="11">Funcionamento das conjecturas de design</text>
<text x="56" y="258" fill="#0F6E56" font-size="11">Contexto</text>
<text x="140" y="258" fill="#085041" font-size="11">Pesquisador = observador · escolas parceiras · 2–3 ciclos/sem</text>
<line x1="340" y1="274" x2="340" y2="298" stroke="#9c9a92" stroke-width="1.2" marker-end="url(#ma3)"/>
<text x="354" y="288" fill="#9c9a92" font-size="9">valida</text>
<rect x="40" y="300" width="600" height="116" rx="14" fill="#FAEEDA" stroke="#854F0B" stroke-width="0.5"/>
<rect x="56" y="314" width="50" height="22" rx="11" fill="#854F0B"/>
<text x="81" y="325" text-anchor="middle" dominant-baseline="central" fill="#fff" font-size="10" font-weight="500">EVE</text>
<text x="116" y="325" dominant-baseline="central" fill="#633806" font-size="13" font-weight="500">Estudo de Validação Ecológica</text>
<line x1="56" y1="346" x2="626" y2="346" stroke="#854F0B" stroke-width="0.5" opacity="0.15"/>
<text x="56" y="364" fill="#854F0B" font-size="11">Objetivo</text>
<text x="140" y="364" fill="#633806" font-size="11">Validar robustez no contexto-alvo</text>
<text x="56" y="382" fill="#854F0B" font-size="11">Limite</text>
<text x="140" y="382" fill="#633806" font-size="11">Validade ecológica, condições de contorno</text>
<text x="56" y="400" fill="#854F0B" font-size="11">Contexto</text>
<text x="140" y="400" fill="#633806" font-size="11">Professores conduzem · Masterclasses · episódico</text>
</svg>
