<svg xmlns="http://www.w3.org/2000/svg" viewBox="0 0 700 460" width="100%" style="max-width:700px;height:auto">
<defs>
<marker id="ma2" viewBox="0 0 10 10" refX="8" refY="5" markerWidth="6" markerHeight="6" orient="auto-start-reverse">
<path d="M2 1L8 5L2 9" fill="none" stroke="context-stroke" stroke-width="1.5" stroke-linecap="round" stroke-linejoin="round"/>
</marker>
</defs>

<text x="350" y="20" text-anchor="middle" fill="#9c9a92" font-size="10" opacity="0.6">Adapted from Collins (1999), in Barab &amp; Squire (2004, JLS, v.13, n.1, Table 1)</text>

<!-- Header -->
<rect x="40" y="38" width="130" height="34" rx="6" fill="#F1EFE8"/>
<text x="105" y="55" text-anchor="middle" dominant-baseline="central" fill="#444441" font-size="13" font-weight="500">Categoria</text>
<rect x="180" y="38" width="220" height="34" rx="6" fill="#F1EFE8" stroke="#888780" stroke-width="0.5"/>
<text x="290" y="55" text-anchor="middle" dominant-baseline="central" fill="#444441" font-size="13" font-weight="500">Pesquisa tradicional</text>
<rect x="410" y="38" width="250" height="34" rx="6" fill="#E1F5EE" stroke="#0F6E56" stroke-width="0.5"/>
<text x="535" y="55" text-anchor="middle" dominant-baseline="central" fill="#085041" font-size="13" font-weight="500">Design-Based Research</text>

<line x1="40" y1="80" x2="660" y2="80" stroke="#d3d1c7" stroke-width="0.5" opacity="0.4"/>

<text x="50" y="102" dominant-baseline="central" fill="#444441" font-size="13" font-weight="500">Localização</text>
<rect x="180" y="88" width="220" height="28" rx="5" fill="#F1EFE8" stroke="#888780" stroke-width="0.5"/>
<text x="290" y="102" text-anchor="middle" dominant-baseline="central" fill="#5F5E5A" font-size="12">Laboratório controlado</text>
<rect x="410" y="88" width="250" height="28" rx="5" fill="#E1F5EE" stroke="#0F6E56" stroke-width="0.5"/>
<text x="535" y="102" text-anchor="middle" dominant-baseline="central" fill="#0F6E56" font-size="12">Contexto real, situado</text>

<text x="50" y="144" dominant-baseline="central" fill="#444441" font-size="13" font-weight="500">Variáveis</text>
<rect x="180" y="130" width="220" height="28" rx="5" fill="#F1EFE8" stroke="#888780" stroke-width="0.5"/>
<text x="290" y="144" text-anchor="middle" dominant-baseline="central" fill="#5F5E5A" font-size="12">Uma ou duas dependentes</text>
<rect x="410" y="130" width="250" height="28" rx="5" fill="#E1F5EE" stroke="#0F6E56" stroke-width="0.5"/>
<text x="535" y="144" text-anchor="middle" dominant-baseline="central" fill="#0F6E56" font-size="12">Múltiplas, interdependentes</text>

<text x="50" y="186" dominant-baseline="central" fill="#444441" font-size="13" font-weight="500">Foco</text>
<rect x="180" y="172" width="220" height="28" rx="5" fill="#F1EFE8" stroke="#888780" stroke-width="0.5"/>
<text x="290" y="186" text-anchor="middle" dominant-baseline="central" fill="#5F5E5A" font-size="12">Isolar e manter constantes</text>
<rect x="410" y="172" width="250" height="28" rx="5" fill="#E1F5EE" stroke="#0F6E56" stroke-width="0.5"/>
<text x="535" y="186" text-anchor="middle" dominant-baseline="central" fill="#0F6E56" font-size="12">Caracterizar a complexidade</text>

<text x="50" y="228" dominant-baseline="central" fill="#444441" font-size="13" font-weight="500">Procedimentos</text>
<rect x="180" y="214" width="220" height="28" rx="5" fill="#F1EFE8" stroke="#888780" stroke-width="0.5"/>
<text x="290" y="228" text-anchor="middle" dominant-baseline="central" fill="#5F5E5A" font-size="12">Fixos, pré-definidos</text>
<rect x="410" y="214" width="250" height="28" rx="5" fill="#E1F5EE" stroke="#0F6E56" stroke-width="0.5"/>
<text x="535" y="228" text-anchor="middle" dominant-baseline="central" fill="#0F6E56" font-size="12">Revisão flexível, iterativa</text>

<text x="50" y="270" dominant-baseline="central" fill="#444441" font-size="13" font-weight="500">Interação social</text>
<rect x="180" y="256" width="220" height="28" rx="5" fill="#F1EFE8" stroke="#888780" stroke-width="0.5"/>
<text x="290" y="270" text-anchor="middle" dominant-baseline="central" fill="#5F5E5A" font-size="12">Isolada, controlada</text>
<rect x="410" y="256" width="250" height="28" rx="5" fill="#E1F5EE" stroke="#0F6E56" stroke-width="0.5"/>
<text x="535" y="270" text-anchor="middle" dominant-baseline="central" fill="#0F6E56" font-size="12">Complexa, capturada como dado</text>

<text x="50" y="312" dominant-baseline="central" fill="#444441" font-size="13" font-weight="500">Achados</text>
<rect x="180" y="298" width="220" height="28" rx="5" fill="#F1EFE8" stroke="#888780" stroke-width="0.5"/>
<text x="290" y="312" text-anchor="middle" dominant-baseline="central" fill="#5F5E5A" font-size="12">Testar hipóteses</text>
<rect x="410" y="298" width="250" height="28" rx="5" fill="#E1F5EE" stroke="#0F6E56" stroke-width="0.5"/>
<text x="535" y="312" text-anchor="middle" dominant-baseline="central" fill="#0F6E56" font-size="12">Perfil que caracteriza o design</text>

<text x="50" y="354" dominant-baseline="central" fill="#444441" font-size="13" font-weight="500">Participantes</text>
<rect x="180" y="340" width="220" height="28" rx="5" fill="#F1EFE8" stroke="#888780" stroke-width="0.5"/>
<text x="290" y="354" text-anchor="middle" dominant-baseline="central" fill="#5F5E5A" font-size="12">Sujeitos de pesquisa</text>
<rect x="410" y="340" width="250" height="28" rx="5" fill="#E1F5EE" stroke="#0F6E56" stroke-width="0.5"/>
<text x="535" y="354" text-anchor="middle" dominant-baseline="central" fill="#0F6E56" font-size="12">Co-designers e co-analistas</text>

<line x1="40" y1="380" x2="660" y2="380" stroke="#d3d1c7" stroke-width="0.5" stroke-dasharray="4 3" opacity="0.3"/>

<text x="50" y="404" dominant-baseline="central" fill="#9c9a92" font-size="13" font-style="italic">Produto*</text>
<rect x="180" y="390" width="220" height="28" rx="5" fill="#F1EFE8" stroke="#888780" stroke-width="0.5" opacity="0.5"/>
<text x="290" y="404" text-anchor="middle" dominant-baseline="central" fill="#5F5E5A" font-size="12" opacity="0.6">Hipóteses confirmadas / refutadas</text>
<rect x="410" y="390" width="250" height="28" rx="5" fill="#FAEEDA" stroke="#854F0B" stroke-width="0.5"/>
<text x="535" y="404" text-anchor="middle" dominant-baseline="central" fill="#854F0B" font-size="12">Princípios de design + artefato</text>

<text x="350" y="444" text-anchor="middle" fill="#9c9a92" font-size="10" opacity="0.5">* Extensão nossa — não faz parte da tabela original.</text>
</svg>
